<svg width="40" height="40" viewBox="0 0 40 40" fill="none" xmlns="http://www.w3.org/2000/svg">
<path d="M33.0689 10.0157V22.6725L32.3662 23.3947V10.0907C32.3662 7.36128 30.1167 5.11176 27.3873 5.11176H13.3482C10.6187 5.11176 8.36923 7.36128 8.36923 10.0907V30.0607C8.36923 32.7902 10.6187 35.0397 13.3482 35.0397H27.3873C30.1167 35.0397 32.3662 32.7902 32.3662 30.0607V30.0245L33.0689 29.3218V29.9856C33.0689 33.112 30.5136 35.6673 27.3873 35.6673H13.3482C10.2218 35.6673 7.6665 33.112 7.6665 29.9856V10.0157C7.6665 6.88927 10.2218 4.33398 13.3482 4.33398H27.3873C30.5136 4.33398 33.0689 6.88926 33.0689 10.0157Z" stroke="#4A7BF7" stroke-width="2"/>
<path d="M22.0331 6.33637C22.0331 7.31823 21.2372 8.11415 20.2553 8.11415C19.2735 8.11415 18.4775 7.3182 18.4775 6.33637C18.4775 5.35454 19.2735 4.55859 20.2553 4.55859C21.2372 4.55859 22.0331 5.35451 22.0331 6.33637Z" fill="#4A7BF7" stroke="#4A7BF7" stroke-width="2"/>
<mask id="path-3-inside-1_2361_17739" fill="white">
<path d="M23.3331 12.1172H13.1228C12.3765 12.1172 11.7715 12.7222 11.7715 13.4685C11.7715 14.2149 12.3765 14.8199 13.1228 14.8199H23.3331C24.0794 14.8199 24.6844 14.2149 24.6844 13.4685C24.6844 12.7222 24.0794 12.1172 23.3331 12.1172Z"/>
<path d="M25.7355 17.9731H13.1228C12.3765 17.9731 11.7715 18.5781 11.7715 19.3244C11.7715 20.0708 12.3765 20.6758 13.1228 20.6758H25.7355C26.4818 20.6758 27.0868 20.0708 27.0868 19.3244C27.0868 18.5781 26.4818 17.9731 25.7355 17.9731Z"/>
</mask>
<path d="M13.1228 14.1172H23.3331V10.1172H13.1228V14.1172ZM23.3331 12.8199H13.1228V16.8199H23.3331V12.8199ZM13.1228 12.8199C13.4811 12.8199 13.7715 13.1103 13.7715 13.4685H9.77148C9.77148 15.3194 11.2719 16.8199 13.1228 16.8199V12.8199ZM22.6844 13.4685C22.6844 13.1103 22.9748 12.8199 23.3331 12.8199V16.8199C25.184 16.8199 26.6844 15.3194 26.6844 13.4685H22.6844ZM23.3331 14.1172C22.9748 14.1172 22.6844 13.8268 22.6844 13.4685H26.6844C26.6844 11.6176 25.184 10.1172 23.3331 10.1172V14.1172ZM13.1228 10.1172C11.2719 10.1172 9.77148 11.6176 9.77148 13.4685H13.7715C13.7715 13.8268 13.4811 14.1172 13.1228 14.1172V10.1172ZM13.1228 19.9731H25.7355V15.9731H13.1228V19.9731ZM25.7355 18.6758H13.1228V22.6758H25.7355V18.6758ZM13.1228 18.6758C13.4811 18.6758 13.7715 18.9662 13.7715 19.3244H9.77148C9.77148 21.1753 11.2719 22.6758 13.1228 22.6758V18.6758ZM25.0868 19.3244C25.0868 18.9662 25.3772 18.6758 25.7355 18.6758V22.6758C27.5864 22.6758 29.0868 21.1753 29.0868 19.3244H25.0868ZM25.7355 19.9731C25.3772 19.9731 25.0868 19.6827 25.0868 19.3244H29.0868C29.0868 17.4735 27.5864 15.9731 25.7355 15.9731V19.9731ZM13.1228 15.9731C11.2719 15.9731 9.77148 17.4735 9.77148 19.3244H13.7715C13.7715 19.6827 13.4811 19.9731 13.1228 19.9731V15.9731Z" fill="#4A7BF7" mask="url(#path-3-inside-1_2361_17739)"/>
<path d="M26.8179 30.4042C26.4274 30.7947 25.7942 30.7947 25.4037 30.4042L22.8252 27.8257C22.4401 27.4406 22.434 26.8181 22.8115 26.4255L23.2894 25.9285C23.6823 25.5199 24.3359 25.5192 24.7296 25.927L26.1108 27.3576L35.689 17.7794C36.0795 17.3888 36.7127 17.3888 37.1032 17.7794L37.5659 18.242C37.9564 18.6326 37.9564 19.2657 37.5659 19.6562L26.8179 30.4042Z" fill="#4A7BF7"/>
<path d="M14.7745 28.709H13.1228C12.3765 28.709 11.7715 29.314 11.7715 30.0603C11.7715 30.8067 12.3765 31.4117 13.1228 31.4117H14.7745C15.5209 31.4117 16.1259 30.8067 16.1259 30.0603C16.1259 29.314 15.5209 28.709 14.7745 28.709Z" fill="#4A7BF7"/>
</svg>
