<svg width="14" height="14" viewBox="0 0 14 14" fill="none" xmlns="http://www.w3.org/2000/svg">
<path fill-rule="evenodd" clip-rule="evenodd" d="M9.05153 4.90829C9.07127 4.67902 9.27313 4.50916 9.5024 4.5289C10.5646 4.62037 11.3965 4.94701 11.9485 5.62733C12.4912 6.29616 12.7 7.23088 12.7 8.39404V8.46626C12.7 9.74913 12.4457 10.7557 11.7703 11.431C11.095 12.1064 10.0884 12.3607 8.80554 12.3607H5.18888C3.906 12.3607 2.89946 12.1064 2.22411 11.431C1.54876 10.7557 1.29443 9.74913 1.29443 8.46626V8.39404C1.29443 7.23933 1.50038 6.31023 2.03435 5.64277C2.57795 4.96327 3.39773 4.63232 4.44465 4.53472C4.67377 4.51336 4.87683 4.68179 4.89819 4.91092C4.91955 5.14004 4.75112 5.3431 4.522 5.36446C3.60225 5.4502 3.03592 5.7248 2.68507 6.16335C2.3246 6.61395 2.12777 7.31541 2.12777 8.39404V8.46626C2.12777 9.66672 2.37066 10.3991 2.81337 10.8418C3.25607 11.2845 3.98842 11.5274 5.18888 11.5274H8.80554C10.006 11.5274 10.7384 11.2845 11.1811 10.8418C11.6238 10.3991 11.8667 9.66672 11.8667 8.46626V8.39404C11.8667 7.30719 11.6671 6.60302 11.3014 6.1524C10.9451 5.71328 10.3687 5.43992 9.43091 5.35917C9.20164 5.33942 9.03178 5.13756 9.05153 4.90829Z" fill="#0C327A"/>
<path fill-rule="evenodd" clip-rule="evenodd" d="M6.99992 0.695312C7.23004 0.695312 7.41659 0.881861 7.41659 1.11198V8.26753C7.41659 8.49765 7.23004 8.6842 6.99992 8.6842C6.7698 8.6842 6.58325 8.49765 6.58325 8.26753V1.11198C6.58325 0.881861 6.7698 0.695312 6.99992 0.695312Z" fill="#0C327A"/>
<path fill-rule="evenodd" clip-rule="evenodd" d="M4.84421 6.73337C5.00693 6.57065 5.27074 6.57065 5.43346 6.73337L6.99995 8.29985L8.56643 6.73337C8.72915 6.57065 8.99297 6.57065 9.15568 6.73337C9.3184 6.89609 9.3184 7.1599 9.15568 7.32262L7.29457 9.18373C7.13186 9.34645 6.86804 9.34645 6.70532 9.18373L4.84421 7.32262C4.68149 7.1599 4.68149 6.89609 4.84421 6.73337Z" fill="#0C327A"/>
</svg>
