<svg width="165" height="32" viewBox="0 0 165 32" fill="none" xmlns="http://www.w3.org/2000/svg">
<path d="M0 10.2767C0 13.8284 2.3469 15.9406 5.86725 15.9406C9.43454 15.9406 11.7345 13.6093 11.7345 10.308C11.7345 6.77203 9.3876 4.65982 5.86725 4.64418C2.29996 4.64418 0 6.97543 0 10.2767ZM2.06527 10.2924C2.06527 8.00807 3.5047 6.45911 5.85161 6.44347C8.35497 6.45911 9.66923 8.14888 9.66923 10.2924C9.66923 12.5923 8.21415 14.1413 5.8829 14.1413C3.37954 14.1257 2.06527 12.4359 2.06527 10.2924Z" fill="#333F48"/>
<path d="M21.7332 15.7685H23.6889V4.81628H21.7332V9.22846H15.7407V4.81628H13.785V15.7685H15.7407V11.0277H21.7332V15.7685Z" fill="#333F48"/>
<path d="M33.8186 15.7685H35.7743V4.81628H27.8575L27.7479 7.08495C27.435 13.3903 26.5432 13.8597 25.7922 13.8597C25.6514 13.8597 25.4793 13.844 25.3228 13.7814V15.7528C25.5575 15.8624 25.8548 15.9093 26.199 15.9093C27.7949 15.9093 29.1874 15.0957 29.6255 7.13189L29.6568 6.61557H33.8186V15.7685Z" fill="#333F48"/>
<path d="M43.9801 4.81628H41.7583L37.3149 15.7685H39.3019L40.3345 13.1712H45.3569L46.4052 15.7685H48.4861L43.9801 4.81628ZM41.0386 11.372L42.8379 6.88155L44.6372 11.372H41.0386Z" fill="#333F48"/>
<path d="M51.9832 4.81628H50.0275V15.7685H52.124L58.1321 7.46046V15.7685H60.0879V4.81628H57.96L51.9832 12.9991V4.81628ZM56.458 2C56.3798 2.54761 56.0355 2.90747 55.1124 2.90747C54.2206 2.90747 53.7982 2.56326 53.7043 2H51.8581C52.0458 3.84623 53.3914 4.28432 55.1437 4.28432C56.9274 4.28432 58.1008 3.53331 58.2729 2H56.458Z" fill="#333F48"/>
<path d="M70.8867 15.7685H72.8424V4.81628H70.8867V9.22846H64.8942V4.81628H62.9385V15.7685H64.8942V11.0277H70.8867V15.7685Z" fill="#333F48"/>
<path d="M75.509 11.9978H79.7021V10.308H75.509V11.9978Z" fill="#333F48"/>
<path d="M90.1655 15.7685H92.1212V4.81628H82.3738V15.7685H84.3295V6.61557H90.1655V15.7685Z" fill="#333F48"/>
<path d="M94.1816 10.2767C94.1816 13.8284 96.5285 15.9406 100.049 15.9406C103.616 15.9406 105.916 13.6093 105.916 10.308C105.916 6.77203 103.569 4.65982 100.049 4.64418C96.4816 4.64418 94.1816 6.97543 94.1816 10.2767ZM96.2469 10.2924C96.2469 8.00807 97.6863 6.45911 100.033 6.44347C102.537 6.45911 103.851 8.14888 103.851 10.2924C103.851 12.5923 102.396 14.1413 100.064 14.1413C97.5611 14.1257 96.2469 12.4359 96.2469 10.2924Z" fill="#333F48"/>
<path d="M106.377 13.9692V17.8025H108.208V15.7685H115.859V17.8025H117.689V13.9692H116.422V4.81628H108.724L108.693 7.08495C108.646 10.4176 108.192 12.4828 107.566 13.9692H106.377ZM110.508 7.13189V6.61557H114.466V13.9692H109.475C110.101 12.2481 110.445 9.99511 110.508 7.13189Z" fill="#333F48"/>
<path d="M127.294 15.7685H129.25V4.81628H119.502V15.7685H121.458V6.61557H127.294V15.7685Z" fill="#333F48"/>
<path d="M134.048 4.81628H132.093V15.7685H134.189L140.197 7.46046V15.7685H142.153V4.81628H140.025L134.048 12.9991V4.81628Z" fill="#333F48"/>
<path d="M154.047 12.1543C153.406 13.2651 152.06 14.1413 150.151 14.1413C147.632 14.0944 146.334 12.4202 146.334 10.2924C146.334 7.99242 147.804 6.44347 150.198 6.44347C151.841 6.44347 153.171 7.38223 153.828 8.35228V5.62987C153.186 5.17614 151.919 4.64418 150.198 4.64418C146.568 4.64418 144.221 6.97543 144.221 10.2767C144.221 13.8127 146.599 15.9249 150.167 15.9406C152.06 15.9406 153.499 15.2209 154.047 14.5637V12.1543Z" fill="#333F48"/>
<path d="M158.022 4.81628H156.066V15.7685H159.524C162.715 15.7685 164.436 14.4855 164.436 11.9352C164.436 9.46315 162.981 8.22711 159.508 8.22711H158.022V4.81628ZM159.68 10.0264C161.589 10.0264 162.418 10.5427 162.418 11.8883C162.418 13.3746 161.479 13.9692 159.649 13.9692H158.022V10.0264H159.68Z" fill="#333F48"/>
<path d="M156.447 22.6224L157.93 21.5273H152.966V28.1039H157.93V27.0089H154.383V25.3254H157.409V24.2303H154.383V22.6224H156.447Z" fill="#2A9E3E"/>
<path d="M149.219 24.0911H147.495V22.6224H150.247L151.73 21.5273H146.078V28.1039H149.036C150.695 28.1039 151.647 27.351 151.647 26.0378C151.647 24.7825 150.784 24.0911 149.219 24.0911ZM148.972 27.0089H147.495V25.1858H148.972C149.872 25.1858 150.29 25.4907 150.29 26.0971C150.29 26.717 149.847 27.0089 148.972 27.0089Z" fill="#2A9E3E"/>
<path d="M161.952 21.5273H159.249V28.1039H160.666V26.2411H161.952C163.677 26.2411 164.749 25.3326 164.749 23.881C164.749 22.4293 163.677 21.5273 161.952 21.5273ZM161.922 25.146H160.666V22.6224H161.922C162.83 22.6224 163.33 23.0705 163.33 23.8842C163.33 24.6979 162.83 25.146 161.922 25.146Z" fill="#2A9E3E"/>
<path d="M143.646 26.6587C143.283 26.8595 142.86 26.9658 142.423 26.9658C141.146 26.9658 140.219 26.0527 140.219 24.7945C140.219 23.5363 141.146 22.6231 142.423 22.6231C142.906 22.6231 143.339 22.7591 143.712 23.0271L144.728 22.277L144.661 22.2181C144.067 21.6959 143.274 21.4199 142.368 21.4199C141.385 21.4199 140.492 21.7519 139.855 22.3551C139.215 22.9616 138.862 23.8151 138.862 24.7583C138.862 25.7058 139.213 26.572 139.852 27.1969C140.492 27.824 141.383 28.1694 142.359 28.1694C143.381 28.1694 144.272 27.8128 144.877 27.1636C144.41 26.8193 143.96 26.487 143.96 26.487L143.646 26.6587Z" fill="#2A9E3E"/>
<path d="M134.556 21.4316C134.817 21.769 135.04 22.1376 135.218 22.531L130.187 26.2443L128.086 24.9247V23.3372L130.187 24.6568L134.556 21.4316Z" fill="#2A9E3E"/>
<path d="M125.942 24.8134C125.942 24.7421 125.944 24.6714 125.947 24.6008L124.674 24.5371C124.669 24.6286 124.667 24.7208 124.667 24.8134C124.667 26.3405 125.285 27.7231 126.284 28.7236L127.187 27.819C126.418 27.049 125.942 25.9859 125.942 24.8134Z" fill="url(#paint0_linear_2361_17695)"/>
<path d="M130.187 20.5607C130.258 20.5607 130.329 20.5633 130.399 20.5666L130.463 19.2902C130.371 19.2858 130.279 19.2832 130.187 19.2832C128.662 19.2832 127.282 19.902 126.283 20.9029L127.186 21.8075C127.955 21.0376 129.017 20.5607 130.187 20.5607Z" fill="url(#paint1_linear_2361_17695)"/>
<path d="M130.187 29.0655C130.116 29.0655 130.045 29.0637 129.975 29.0601L129.911 30.3357C130.003 30.3402 130.095 30.3427 130.187 30.3427C131.712 30.3427 133.092 29.7239 134.091 28.723L133.188 27.8184C132.419 28.5884 131.358 29.0655 130.187 29.0655Z" fill="url(#paint2_linear_2361_17695)"/>
<path d="M132.581 21.3029L133.655 20.5102C132.707 19.7432 131.501 19.2832 130.188 19.2832V20.5607C131.075 20.5607 131.899 20.8348 132.581 21.3029Z" fill="url(#paint3_linear_2361_17695)"/>
<path d="M135.708 24.8129C135.708 24.4747 135.678 24.1436 135.62 23.8223L134.431 24.6994C134.432 24.7371 134.433 24.7748 134.433 24.8129C134.433 26.0615 133.893 27.1861 133.034 27.9648L133.891 28.9134C135.007 27.9019 135.708 26.4395 135.708 24.8129Z" fill="#2A9E3E"/>
<path d="M130.188 29.0669C128.941 29.0669 127.818 28.526 127.041 27.666L126.094 28.5241C127.104 29.6418 128.564 30.344 130.188 30.344V29.0669Z" fill="url(#paint4_linear_2361_17695)"/>
<path d="M127.34 21.6614L126.484 20.7129C125.368 21.7248 124.667 23.1871 124.667 24.8134H125.942C125.942 23.5647 126.482 22.4402 127.34 21.6614Z" fill="url(#paint5_linear_2361_17695)"/>
<defs>
<linearGradient id="paint0_linear_2361_17695" x1="126.542" y1="28.5639" x2="125.144" y2="24.5306" gradientUnits="userSpaceOnUse">
<stop offset="0.1444" stop-color="#F2E913"/>
<stop offset="0.3037" stop-color="#E7E518"/>
<stop offset="0.5823" stop-color="#CADB26"/>
<stop offset="0.891" stop-color="#A3CD39"/>
</linearGradient>
<linearGradient id="paint1_linear_2361_17695" x1="126.647" y1="21.1292" x2="130.238" y2="19.763" gradientUnits="userSpaceOnUse">
<stop offset="0.0592" stop-color="#0FA8E0"/>
<stop offset="0.5385" stop-color="#0099F9"/>
<stop offset="0.9234" stop-color="#0291EB"/>
</linearGradient>
<linearGradient id="paint2_linear_2361_17695" x1="129.827" y1="29.5722" x2="133.887" y2="28.6562" gradientUnits="userSpaceOnUse">
<stop offset="0.1226" stop-color="#A3CD39"/>
<stop offset="0.2846" stop-color="#86C339"/>
<stop offset="0.8693" stop-color="#21A038"/>
</linearGradient>
<linearGradient id="paint3_linear_2361_17695" x1="129.921" y1="19.7115" x2="133.392" y2="20.7808" gradientUnits="userSpaceOnUse">
<stop offset="0.0566" stop-color="#0291EB"/>
<stop offset="0.79" stop-color="#0C8ACB"/>
</linearGradient>
<linearGradient id="paint4_linear_2361_17695" x1="126.414" y1="28.3689" x2="130.192" y2="29.7785" gradientUnits="userSpaceOnUse">
<stop offset="0.1324" stop-color="#F2E913"/>
<stop offset="0.2977" stop-color="#EBE716"/>
<stop offset="0.5306" stop-color="#D9E01F"/>
<stop offset="0.8023" stop-color="#BBD62D"/>
<stop offset="0.9829" stop-color="#A3CD39"/>
</linearGradient>
<linearGradient id="paint5_linear_2361_17695" x1="125.142" y1="24.9683" x2="126.662" y2="21.0193" gradientUnits="userSpaceOnUse">
<stop offset="0.0698" stop-color="#A3CD39"/>
<stop offset="0.2599" stop-color="#81C55F"/>
<stop offset="0.9216" stop-color="#0FA8E0"/>
</linearGradient>
</defs>
</svg>
