<svg width="32" height="32" viewBox="0 0 32 32" fill="none" xmlns="http://www.w3.org/2000/svg">
<rect width="32" height="32" rx="16" fill="#677178"/>
<path d="M16.1466 14.9648C16.0549 14.9557 15.9449 14.9557 15.8441 14.9648C13.6624 14.8915 11.9299 13.104 11.9299 10.904C11.9299 8.65815 13.7449 6.83398 15.9999 6.83398C18.2458 6.83398 20.0699 8.65815 20.0699 10.904C20.0608 13.104 18.3283 14.8915 16.1466 14.9648Z" stroke="white" stroke-width="1.5" stroke-linecap="round" stroke-linejoin="round"/>
<path d="M11.5634 18.346C9.34507 19.831 9.34507 22.251 11.5634 23.7268C14.0842 25.4135 18.2184 25.4135 20.7392 23.7268C22.9576 22.2418 22.9576 19.8218 20.7392 18.346C18.2276 16.6685 14.0934 16.6685 11.5634 18.346Z" stroke="white" stroke-width="1.5" stroke-linecap="round" stroke-linejoin="round"/>
</svg>
